<svg xmlns="http://www.w3.org/2000/svg" width="250" height="250" fill="none" viewBox="0 0 250 250">
<!-- SVG created with Arrow, by QuiverAI (https://quiver.ai) -->
  <path d="m192 102.3-39.75-22.5c-0.98-0.54-2.16-0.51-3.1 0.08l-38.03 22.12c-1.38 0.7-2.13 1.92-2.13 3.4v33.23c0 1.39 0.74 2.67 1.98 3.35l38.8 22.66c1.13 0.68 2.42 0.68 3.58-0.06l38.8-22.51c1.12-0.62 1.62-1.75 1.62-3.14v-33.48c0-1.26-0.6-2.47-1.77-3.15zm-44.2 52.52-31.41-18.52v-24l31.41 16.57v25.95zm2.95-31.93-30.66-17.64 30.76-18.16 32.12 18.16-32.22 17.64z" fill="url(#paint0_linear_2390_107596)"/>
  <path d="m178 67.7-0.4-18.92c-0.05-2.6-1.87-3.09-3.04-3.09h-35.15v-3.58c0-2.2-0.82-3.75-2.74-4.85l-36.61-21.97c-1.29-0.8-2.73-0.92-3.72-0.29l-38.95 22.81c-1.58 0.8-2.76 1.9-2.76 3.95v32.36c0 1.49 0.74 2.54 2.27 3.39l13.64 8.68v41.67c0 2.45 1.27 3.79 3.39 3.79h13.85v8.56l18.29-12.58-18.29-12.23v8.93h-9.52v-34.3l16.95 9.67c1.63 0.9 3.02 0.55 4.6-0.45l36.96-21.34c1.82-1.05 2.54-2.45 2.23-4.89v-20.41h31.54l0.15 15.09h-8.72l11.96 19.38 12.7-19.38h-8.63zm-80.76-8.86-31.65-17.78 31.65-19.03 30.76 18.48-30.76 18.33zm34.67 12.98-30.41 18.11v-24.42l30.56-18.38-0.15 24.69z" fill="url(#paint1_linear_2390_107596)"/>
  <path d="m18.23 192.7c-8.41 0-11.77 8.02-11.77 15.04 0 8.01 4.5 14.98 11.98 14.98 4.45 0 7.91-2 9.28-5.85v5.15h7.07v-39.14h-7.17v15.79c-1.57-3.7-4.48-5.97-9.39-5.97zm1.83 24.02c-5.07 0-6.99-4.95-6.99-9.49 0-4.7 2.28-8.76 6.88-8.76 5.27 0 7.67 4.65 7.67 9.22 0 4.89-2.18 9.03-7.56 9.03z" fill="url(#paint2_linear_2390_107596)"/>
  <path d="m53.76 192.7c-8.15 0-11.72 3.75-12.13 8.6h6.67c0.41-2.53 2.28-3.78 5.51-3.78 3.41 0 5.08 1.9 5.08 4.18 0 1.75-0.76 2.65-3.95 3.1l-5.63 0.85c-6.5 1-9.16 4.05-9.16 8.85 0 5.12 3.82 8.07 9.21 8.07 4.5 0 7.45-1.9 9.48-5.4v4.85h6.66v-19.37c0-6.28-4.24-9.95-11.74-9.95zm-2.46 24.77c-3.13 0-4.64-1.65-4.64-4.07 0-2.23 1.26-3.83 4.59-4.48l3.08-0.65c2.08-0.45 3.49-0.93 4.56-1.97v2.67c0 5.13-3.19 8.5-7.59 8.5z" fill="url(#paint3_linear_2390_107596)"/>
  <path d="m92.34 193.3-0.31 4.42c-1.62-3.15-4.08-4.97-8.32-4.97-7.8 0-13.08 6.27-13.08 14.94 0 7.96 4.92 14.23 12.42 14.23 4.09 0 6.9-1.85 8.73-5.05v5.15c0 5-2.66 6.9-7.06 6.9-3.82 0-5.6-1.6-6.46-3.93l-6.65 1.61c1.87 5.15 5.84 7.82 13.01 7.82 9.14 0 14.31-4.27 14.31-12.92v-28.2h-6.59zm-6.95 23.07c-4.97 0-7.33-4.42-7.33-9.22 0-5.2 2.81-8.9 7.26-8.9 4.96 0 7.17 4.55 7.17 9.05 0 5-2.18 9.07-7.1 9.07z" fill="url(#paint4_linear_2390_107596)"/>
  <path d="m117.7 204.4c-3.77-0.68-5.9-1.03-5.9-3.5 0-1.75 1.83-3.25 5.01-3.25 3.37 0 5.35 1.65 5.65 3.97h6.4c-0.61-5.45-4.9-8.87-11.87-8.87-7.22 0-11.78 3.47-11.78 8.75 0 6.22 5.68 7.42 10.33 8.27 4.09 0.8 6.9 1.13 6.9 3.95 0 2.23-2.03 3.6-5.4 3.6-3.62 0-5.54-1.75-6.1-4.17h-6.6c0.92 5.95 5.47 9.47 12.8 9.47 7.69 0 11.78-3.7 11.78-9.3 0-6.22-5.33-7.87-11.22-8.92z" fill="url(#paint5_linear_2390_107596)"/>
  <path d="m143.1 185.6h-7.33l-0.1 7.85h-4.29v4.75h4.24l-0.15 14.55c-0.11 6.32 2.8 9.87 8.85 9.87 1.87 0 3.44-0.25 4.81-0.6l-0.51-5.6c-0.92 0.25-1.78 0.4-2.69 0.4-2.42 0-3.18-1.5-3.18-4.5l0.26-14.12h5.63v-4.75h-5.74l0.2-7.85z" fill="url(#paint6_linear_2390_107596)"/>
  <path d="m166.7 192.7c-8.15 0-11.72 3.75-12.13 8.6h6.66c0.41-2.53 2.29-3.78 5.52-3.78 3.41 0 5.08 1.9 5.08 4.18 0 1.75-0.76 2.65-3.95 3.1l-5.63 0.85c-6.5 1-9.16 4.05-9.16 8.85 0 5.12 3.82 8.07 9.21 8.07 4.5 0 7.45-1.9 9.48-5.4v4.85h6.66v-19.37c0-6.28-4.24-9.95-11.74-9.95zm-2.46 24.77c-3.13 0-4.64-1.65-4.64-4.07 0-2.23 1.26-3.83 4.59-4.48l3.07-0.65c2.08-0.45 3.5-0.93 4.57-1.97v2.67c0 5.13-3.18 8.5-7.59 8.5z" fill="url(#paint7_linear_2390_107596)"/>
  <path d="m197.6 216.9c-5.44 0-7.47-4.95-7.47-9.5 0-4.9 2.23-9.27 7.14-9.27 3.62 0 5.7 2.37 6.47 5.37h6.66c-1.26-6.5-6.02-10.77-12.92-10.77-9.45 0-13.9 6.72-13.9 14.94 0 8.51 5.18 14.93 13.75 14.93 7.17 0 11.93-3.95 13.19-10.67h-6.76c-0.86 3.1-2.79 4.97-6.16 4.97z" fill="url(#paint8_linear_2390_107596)"/>
  <path d="m231.5 205 10.66-12.06h-7.79l-11.28 11.92v-21.94h-7.64v39.14h7.54v-10.67l2.9-2.38 9.55 13.6h7.85l-11.79-17.61z" fill="url(#paint9_linear_2390_107596)"/>
  <defs>
    <linearGradient id="paint0_linear_2390_107596" x1="151.4" x2="151.4" y1="79.21" y2="165.2" gradientUnits="userSpaceOnUse">
      <stop stop-color="#4A49DB" offset="0"/>
      <stop stop-color="#3E38C9" offset="1"/>
    </linearGradient>
    <linearGradient id="paint1_linear_2390_107596" x1="120.7" x2="120.7" y1="14.45" y2="141.1" gradientUnits="userSpaceOnUse">
      <stop stop-color="#4A49DB" offset="0"/>
      <stop stop-color="#3E38C9" offset="1"/>
    </linearGradient>
    <linearGradient id="paint2_linear_2390_107596" x1="20.58" x2="20.58" y1="182.9" y2="222.8" gradientUnits="userSpaceOnUse">
      <stop stop-color="#4A49DB" offset="0"/>
      <stop stop-color="#3E38C9" offset="1"/>
    </linearGradient>
    <linearGradient id="paint3_linear_2390_107596" x1="52.83" x2="52.83" y1="192.7" y2="222.6" gradientUnits="userSpaceOnUse">
      <stop stop-color="#4A49DB" offset="0"/>
      <stop stop-color="#3E38C9" offset="1"/>
    </linearGradient>
    <linearGradient id="paint4_linear_2390_107596" x1="84.77" x2="84.77" y1="192.7" y2="234.4" gradientUnits="userSpaceOnUse">
      <stop stop-color="#4A49DB" offset="0"/>
      <stop stop-color="#3E38C9" offset="1"/>
    </linearGradient>
    <linearGradient id="paint5_linear_2390_107596" x1="116.6" x2="116.6" y1="192.7" y2="222.6" gradientUnits="userSpaceOnUse">
      <stop stop-color="#4A49DB" offset="0"/>
      <stop stop-color="#3E38C9" offset="1"/>
    </linearGradient>
    <linearGradient id="paint6_linear_2390_107596" x1="140.3" x2="140.3" y1="185.6" y2="222.6" gradientUnits="userSpaceOnUse">
      <stop stop-color="#4A49DB" offset="0"/>
      <stop stop-color="#3E38C9" offset="1"/>
    </linearGradient>
    <linearGradient id="paint7_linear_2390_107596" x1="165.8" x2="165.8" y1="192.7" y2="222.6" gradientUnits="userSpaceOnUse">
      <stop stop-color="#4A49DB" offset="0"/>
      <stop stop-color="#3E38C9" offset="1"/>
    </linearGradient>
    <linearGradient id="paint8_linear_2390_107596" x1="197" x2="197" y1="192.7" y2="222.6" gradientUnits="userSpaceOnUse">
      <stop stop-color="#4A49DB" offset="0"/>
      <stop stop-color="#3E38C9" offset="1"/>
    </linearGradient>
    <linearGradient id="paint9_linear_2390_107596" x1="229.4" x2="229.4" y1="182.9" y2="222.6" gradientUnits="userSpaceOnUse">
      <stop stop-color="#4A49DB" offset="0"/>
      <stop stop-color="#3E38C9" offset="1"/>
    </linearGradient>
  </defs>
</svg>
