<svg xmlns="http://www.w3.org/2000/svg" width="256" height="256" fill="none" viewBox="48 8 150 160">
  <path d="m192 102.3-39.75-22.5c-0.98-0.54-2.16-0.51-3.1 0.08l-38.03 22.12c-1.38 0.7-2.13 1.92-2.13 3.4v33.23c0 1.39 0.74 2.67 1.98 3.35l38.8 22.66c1.13 0.68 2.42 0.68 3.58-0.06l38.8-22.51c1.12-0.62 1.62-1.75 1.62-3.14v-33.48c0-1.26-0.6-2.47-1.77-3.15zm-44.2 52.52-31.41-18.52v-24l31.41 16.57v25.95zm2.95-31.93-30.66-17.64 30.76-18.16 32.12 18.16-32.22 17.64z" fill="#4A49DB"/>
  <path d="m178 67.7-0.4-18.92c-0.05-2.6-1.87-3.09-3.04-3.09h-35.15v-3.58c0-2.2-0.82-3.75-2.74-4.85l-36.61-21.97c-1.29-0.8-2.73-0.92-3.72-0.29l-38.95 22.81c-1.58 0.8-2.76 1.9-2.76 3.95v32.36c0 1.49 0.74 2.54 2.27 3.39l13.64 8.68v41.67c0 2.45 1.27 3.79 3.39 3.79h13.85v8.56l18.29-12.58-18.29-12.23v8.93h-9.52v-34.3l16.95 9.67c1.63 0.9 3.02 0.55 4.6-0.45l36.96-21.34c1.82-1.05 2.54-2.45 2.23-4.89v-20.41h31.54l0.15 15.09h-8.72l11.96 19.38 12.7-19.38h-8.63zm-80.76-8.86-31.65-17.78 31.65-19.03 30.76 18.48-30.76 18.33zm34.67 12.98-30.41 18.11v-24.42l30.56-18.38-0.15 24.69z" fill="#4A49DB"/>
</svg>
